<svg xmlns="http://www.w3.org/2000/svg" width="24" height="24" viewBox="0 0 24 24"><path d="M12 0c-6.627 0-12 5.373-12 12s5.373 12 12 12 12-5.373 12-12-5.373-12-12-12zm0 2c5.514 0 10 4.486 10 10s-4.486 10-10 10-10-4.486-10-10 4.486-10 10-10zm2.463 15.006c-.19 0-.41-.059-.572-.182l-2.091-1.789-1.041.977c-.15.138-.344.209-.545.209-.136 0-.271-.035-.395-.101-.326-.176-.464-.567-.323-.909l.867-2.909-3.921-1.291c-.347-.111-.536-.481-.424-.829.076-.234.275-.398.513-.432l10.966-4.225c.34-.145.728.02.871.36.052.122.052.261-.001.385l-4.104 10.375c-.126.331-.502.502-.8.361zm-2.486-3.82l2.35 2.011 2.966-7.5-7.538 2.904 2.222 1.343.342 1.242zm.892-1.996l-1.025-.619 4.673-1.8-3.648 2.419z"/></svg>
